<?xml version="1.0" encoding="iso-8859-1"?>
<!-- Generator: Adobe Illustrator 19.0.0, SVG Export Plug-In . SVG Version: 6.00 Build 0)  -->
<svg version="1.1" id="Layer_1" xmlns="http://www.w3.org/2000/svg" xmlns:xlink="http://www.w3.org/1999/xlink" x="0px" y="0px"
	 viewBox="0 0 473.931 473.931" style="enable-background:new 0 0 473.931 473.931;" xml:space="preserve">
<circle style="fill:#008593;" cx="236.966" cy="236.966" r="236.966"/>
<g>
	<path style="fill:#FFC50B;" d="M100.174,228.419c-0.228-0.67-0.797-1.156-1.489-1.257l-23.768-3.454l-10.634-21.538
		c-0.614-1.253-2.69-1.253-3.304,0l-10.634,21.538l-23.76,3.454c-0.696,0.101-1.272,0.587-1.489,1.257
		c-0.213,0.67-0.037,1.399,0.468,1.886l17.197,16.763l-4.056,23.67c-0.123,0.692,0.161,1.388,0.73,1.8s1.325,0.468,1.946,0.142
		l21.253-11.177l21.261,11.177c0.269,0.142,0.561,0.21,0.861,0.21c0.382,0,0.76-0.116,1.081-0.352
		c0.561-0.412,0.849-1.111,0.722-1.8l-4.052-23.67l17.197-16.763C100.212,229.819,100.388,229.086,100.174,228.419z"/>
	<path style="fill:#FFC50B;" d="M187.339,228.419c-0.221-0.67-0.797-1.156-1.489-1.257l-23.76-3.454l-10.634-21.538
		c-0.614-1.253-2.69-1.253-3.304,0l-10.634,21.538l-23.76,3.454c-0.696,0.101-1.272,0.587-1.489,1.257
		c-0.217,0.67-0.037,1.399,0.468,1.886l17.197,16.763l-4.064,23.67c-0.109,0.692,0.168,1.388,0.73,1.8
		c0.576,0.412,1.328,0.468,1.946,0.142l21.261-11.177l21.253,11.177c0.269,0.142,0.569,0.21,0.861,0.21
		c0.389,0,0.767-0.116,1.089-0.352c0.561-0.412,0.849-1.111,0.722-1.8l-4.056-23.67l17.197-16.763
		C187.376,229.819,187.559,229.086,187.339,228.419z"/>
	<path style="fill:#FFC50B;" d="M275.409,228.419c-0.221-0.67-0.797-1.156-1.489-1.257l-23.76-3.454l-10.634-21.538
		c-0.614-1.253-2.69-1.253-3.304,0l-10.634,21.538l-23.756,3.454c-0.696,0.101-1.272,0.587-1.489,1.257
		c-0.217,0.67-0.045,1.399,0.468,1.886l17.197,16.763l-4.064,23.67c-0.116,0.692,0.168,1.388,0.73,1.8
		c0.569,0.412,1.328,0.468,1.946,0.142l21.261-11.177l21.261,11.177c0.262,0.142,0.561,0.21,0.857,0.21
		c0.382,0,0.767-0.116,1.081-0.352c0.561-0.412,0.857-1.111,0.73-1.8l-4.056-23.67l17.197-16.763
		C275.446,229.819,275.629,229.086,275.409,228.419z"/>
	<path style="fill:#FFC50B;" d="M360.822,228.419c-0.213-0.67-0.789-1.156-1.482-1.257l-23.76-3.454l-10.634-21.538
		c-0.621-1.253-2.69-1.253-3.304,0l-10.634,21.538l-23.76,3.454c-0.703,0.101-1.272,0.587-1.489,1.257
		c-0.217,0.67-0.045,1.399,0.46,1.886l17.205,16.763l-4.064,23.67c-0.116,0.692,0.161,1.388,0.73,1.8s1.325,0.468,1.946,0.142
		l21.261-11.177l21.253,11.177c0.269,0.142,0.561,0.21,0.861,0.21c0.382,0,0.76-0.116,1.081-0.352c0.561-0.412,0.849-1.111,0.73-1.8
		l-4.056-23.67l17.197-16.763C360.855,229.819,361.039,229.086,360.822,228.419z"/>
	<path style="fill:#FFC50B;" d="M447.997,228.419c-0.221-0.67-0.804-1.156-1.489-1.257l-23.768-3.454l-10.634-21.538
		c-0.614-1.253-2.683-1.253-3.304,0l-10.627,21.538l-23.768,3.454c-0.696,0.101-1.272,0.587-1.489,1.257
		c-0.217,0.67-0.037,1.399,0.468,1.886l17.197,16.763l-4.056,23.67c-0.116,0.692,0.161,1.388,0.73,1.8s1.325,0.468,1.938,0.142
		l21.261-11.177l21.261,11.177c0.269,0.142,0.561,0.21,0.861,0.21c0.382,0,0.76-0.116,1.081-0.352
		c0.561-0.412,0.849-1.111,0.722-1.8l-4.049-23.67l17.19-16.763C448.035,229.819,448.21,229.086,447.997,228.419z"/>
</g>
<g>
</g>
<g>
</g>
<g>
</g>
<g>
</g>
<g>
</g>
<g>
</g>
<g>
</g>
<g>
</g>
<g>
</g>
<g>
</g>
<g>
</g>
<g>
</g>
<g>
</g>
<g>
</g>
<g>
</g>
</svg>
